<?xml version="1.0" encoding="utf-8"?>
<!-- Generator: Adobe Illustrator 16.0.0, SVG Export Plug-In . SVG Version: 6.00 Build 0)  -->
<!DOCTYPE svg PUBLIC "-//W3C//DTD SVG 1.1//EN" "http://www.w3.org/Graphics/SVG/1.1/DTD/svg11.dtd">
<svg version="1.1" id="Layer_3" xmlns="http://www.w3.org/2000/svg" xmlns:xlink="http://www.w3.org/1999/xlink" x="0px" y="0px"
	 width="100%" viewBox="0 0 1024 200" enable-background="new 0 0 1024 200" xml:space="preserve">
<path fill="none" stroke="#231F20" d="M-0.223,146.848c263.809-48.002,582.105,18.567,651.468,28.085
	c57.51,7.894,129.173,14.462,165.422,13.669c50.251-1.099,115.843-11.184,117.689-36.958l0.069-0.906
	c0.66-22.535-27.021-21.889-41.54-22.595c-10.316-0.5-16.417-7.848-20.229-16.894c-3.849-9.128-8.464-17.738-12.88-26.531
	c-1.846-3.676-3.6-8.08-5.131-12.01c3.768-0.759,9.714-0.513,13.833,1.484c3.396,1.647,6.134,6.201,8.207,9.356
	c4.443,6.771,6.877,16.658,13.872,21.668c6.679,4.785,19.664,3.433,27.779,2.571c12.266-1.301,14.452-9.046,4.605-13.956
	c-8.903-4.443-21.71-2.904-20.142-20.096c4.277-0.613,9.104,0.987,13.203-0.893c3.305-1.515,6.597-4.844,7.834-8.039
	c3.604-9.322-5.148-14.959-6.266-24.336c8.28-2.233,13.899-9.797,15.146-14.481c-7.37,1.644-17.169,5.955-24.163,0.934
	c-3.611-2.592-6.928-6.535-6.199-11.236c0.567-3.668,4.465-8.677,8.32-5.835c4.346,3.203,1.241,10.608-2.007,13.295
	c-3.468,2.86-12.06,5.729-15.939,7.724c-13.454,6.918-15.33,17.099-15.955,17.886c5.331-4.451,11.017-6.058,17.181-7.8
	c0.631,4.336-2.274,9.557-3.493,13.771c-1.445,4.976-7.079,13.423-7.354,18.341c6.928-6.525,18.189-19.205,24.842-25.9
	c4.498,6.061,4.846,16.581,8.22,23.116c4.29,8.311,12.159,9.636,20.119,12.701c7.123,2.739,11.662,5.399,16.882,11.394
	c5.591,6.423,6.629,13.037,10.163,21.411c0,0,5.502,13.186,14.953,13.07c7.567-0.093,22.819-9.6,45.241-44.694"/>
</svg>
